<?xml version="1.0" encoding="UTF-8" standalone="no"?>
<svg
   xmlns:dc="http://purl.org/dc/elements/1.1/"
   xmlns:cc="http://creativecommons.org/ns#"
   xmlns:rdf="http://www.w3.org/1999/02/22-rdf-syntax-ns#"
   xmlns:svg="http://www.w3.org/2000/svg"
   xmlns="http://www.w3.org/2000/svg"
   id="svg8"
   version="1.1"
   viewBox="0 0 132.29166 132.29167"
   height="500"
   width="500">
  <defs
     id="defs2" />
  <metadata
     id="metadata5">
    <rdf:RDF>
      <cc:Work
         rdf:about="">
        <dc:format>image/svg+xml</dc:format>
        <dc:type
           rdf:resource="http://purl.org/dc/dcmitype/StillImage" />
        <dc:title></dc:title>
      </cc:Work>
    </rdf:RDF>
  </metadata>
  <g
     id="layer1">
    <rect
       transform="matrix(0.9648803,-0.26268994,0,1,0,0)"
       y="23.283812"
       x="15.469546"
       height="39.053642"
       width="40.475117"
       id="rect10"
       style="opacity:0.75;fill:#4d4d4d;stroke:none;stroke-width:0.30643;stroke-linejoin:round" />
    <rect
       y="28.216768"
       x="36.600014"
       height="0.81787735"
       width="27.807829"
       id="rect12"
       style="opacity:0.75;fill:#000000;stroke:none;stroke-width:0.301001;stroke-linejoin:round" />
    <rect
       style="opacity:0.75;fill:#4d4d4d;stroke:none;stroke-width:0.204287;stroke-linejoin:round"
       id="rect10-2"
       width="26.98341"
       height="26.035761"
       x="-112.06593"
       y="31.936289"
       transform="matrix(-0.9648803,-0.26268994,0,1,0,0)" />
    <rect
       style="opacity:0.75;fill:#000000;stroke:none;stroke-width:0.301001;stroke-linejoin:round"
       id="rect12-3"
       width="27.807829"
       height="0.81787735"
       x="64.407845"
       y="69.519577" />
    <rect
       transform="matrix(0.9648803,-0.26268994,0,1,0,0)"
       y="115.78068"
       x="23.804733"
       height="15.812293"
       width="16.387829"
       id="rect10-2-6"
       style="opacity:0.75;fill:#4d4d4d;stroke:none;stroke-width:0.12407;stroke-linejoin:round" />
    <rect
       y="112.45814"
       x="31.283812"
       height="0.81787735"
       width="27.807829"
       id="rect12-3-5"
       style="opacity:0.75;fill:#000000;stroke:none;stroke-width:0.301001;stroke-linejoin:round" />
    <path
       id="path119"
       d="m 243.43122,109.73724 c 5.154,-3.6078 10.30598,-7.21418 19.19622,-10.047731 8.89024,-2.83355 21.5126,-4.894343 28.46462,-1.925627 6.95201,2.968718 8.24001,10.954288 13.52514,15.199308 5.28513,4.24502 14.5587,4.76022 23.57109,2.56939 9.01239,-2.19082 17.77076,-7.08521 26.01253,-13.0093 8.24177,-5.924088 15.96975,-12.879267 22.28565,-16.356606 6.31591,-3.477339 11.21029,-3.477339 21.25719,2.451758 10.04691,5.929098 25.24526,17.778658 40.43254,29.619588"
       style="fill:none;stroke:black;stroke-opacity:1;stroke-linejoin:miter;stroke-linecap:butt;stroke-width:1px" />
    <path
       d="m 64.307845,69.519577 h 27.807828 v 0.817877 H 64.307845 Z"
       style="opacity:0.75;fill:#000000;stroke:none;stroke-width:0.301001;stroke-linejoin:round"
       id="rect12-3-8" />
    <path
       id="path132"
       d="m 243.43122,109.73724 c 5.15905,-1.28976 10.31103,-2.57775 13.26929,-3.73527 2.95826,-1.15751 3.73105,-2.1879 4.63325,-3.2191 0.9022,-1.0312 1.9326,-2.06159 5.28392,-3.737025 3.35132,-1.67543 9.0185,-3.993821 12.62736,-5.151982 3.60885,-1.15816 5.15445,-1.15816 6.44013,0.0071 1.28568,1.165226 2.31607,3.48362 3.21852,5.286666 0.90244,1.803045 1.67524,3.091035 3.6093,4.892555 1.93407,1.80151 5.02526,4.1199 7.34305,5.2749 2.31779,1.155 3.86339,1.155 6.0476,-0.51895 2.18421,-1.67394 5.01781,-5.02274 9.78536,-8.63049 4.76755,-3.607747 11.46513,-7.471736 15.71893,-9.402815 4.2538,-1.931079 6.05699,-1.931079 10.43599,1.809281 4.379,3.740359 11.33418,11.210734 15.06956,14.940754 3.73537,3.73001 4.25056,3.73001 6.43441,0.89751 2.18386,-2.83251 6.04785,-8.499688 10.17142,-12.751965 4.12357,-4.252276 8.50276,-7.08587 12.88621,-8.243612 4.38345,-1.157741 8.76264,-0.642543 11.20732,0.135606 2.44468,0.778148 2.95988,1.808545 3.73407,2.967228 0.77418,1.158682 1.80458,2.446679 2.96239,4.379185 1.1578,1.932506 2.4458,4.508501 4.50735,7.985898 2.06155,3.47739 4.89514,7.85658 7.72122,12.22415"
       style="fill:none;stroke:black;stroke-opacity:1;stroke-linejoin:miter;stroke-linecap:butt;stroke-width:1px" />
    <path
       d="m 64.307845,69.519577 h 27.807828 v 0.817877 H 64.307845 Z"
       style="opacity:0.75;fill:#000000;stroke:none;stroke-width:0.301001;stroke-linejoin:round"
       id="rect12-3-4" />
    <path
       id="path145"
       d="m 226.42968,93.508501 c 22.67872,0 45.34745,0 68.00618,0"
       style="fill:none;stroke:black;stroke-opacity:1;stroke-linejoin:miter;stroke-linecap:butt;stroke-width:1px" />
    <path
       d="m 64.307845,69.519577 h 27.807828 v 0.817877 H 64.307845 Z"
       style="opacity:0.75;fill:#000000;stroke:none;stroke-width:0.301001;stroke-linejoin:round"
       id="rect12-3-46" />
    <path
       d="m 68.509499,29.239115 c 0.123021,0.05126 -0.0084,0.191119 -0.0852,0.204469 -0.208107,0.03618 -0.339325,-0.195431 -0.323743,-0.37486 0.02787,-0.320956 0.370426,-0.498264 0.664525,-0.443017 0.431602,0.08108 0.660553,0.547302 0.562291,0.95419 -0.130967,0.542316 -0.724783,0.824188 -1.243855,0.681565 -0.653198,-0.179477 -0.988502,-0.902536 -0.800839,-1.53352 0.227286,-0.764206 1.080439,-1.153207 1.823185,-0.920113 0.8753,0.274694 1.318157,1.258434 1.039387,2.112849 -0.321852,0.986456 -1.436492,1.48327 -2.402514,1.158661 -1.097656,-0.368842 -1.648498,-1.614594 -1.277935,-2.692179 0.415715,-1.208887 1.792727,-1.813807 2.981844,-1.397208 1.320144,0.462503 1.97918,1.970885 1.516482,3.271508"
       id="path160"
       style="fill:none;fill-rule:evenodd;stroke:#000000;stroke-width:0.264583" />
    <path
       style="fill:none;fill-rule:evenodd;stroke:#000000;stroke-width:0.264583"
       id="path160-2"
       d="m 75.445221,29.050791 c 0.123021,0.05126 -0.0084,0.191119 -0.0852,0.204469 -0.208106,0.03618 -0.339324,-0.195431 -0.323743,-0.37486 0.02787,-0.320956 0.370426,-0.498264 0.664525,-0.443017 0.431603,0.08108 0.660553,0.547302 0.562291,0.95419 -0.130967,0.542316 -0.724783,0.824188 -1.243854,0.681565 -0.653199,-0.179477 -0.988503,-0.902536 -0.800839,-1.53352 0.227285,-0.764206 1.080438,-1.153207 1.823184,-0.920113 0.8753,0.274694 1.318157,1.258434 1.039387,2.112849 -0.321851,0.986456 -1.436492,1.48327 -2.402514,1.158661 -1.097656,-0.368841 -1.648497,-1.614594 -1.277935,-2.692179 0.415715,-1.208887 1.792728,-1.813807 2.981844,-1.397208 1.320144,0.462503 1.97918,1.970885 1.516482,3.271508" />
    <path
       style="fill:none;fill-rule:evenodd;stroke:#000000;stroke-width:0.264583"
       id="path160-6"
       d="m 82.397186,29.050791 c 0.123022,0.05126 -0.0084,0.191119 -0.08519,0.204469 -0.208107,0.03618 -0.339325,-0.195431 -0.323743,-0.37486 0.02787,-0.320956 0.370425,-0.498264 0.664525,-0.443017 0.431602,0.08108 0.660553,0.547302 0.562291,0.95419 -0.130968,0.542316 -0.724784,0.824188 -1.243855,0.681565 -0.653198,-0.179477 -0.988502,-0.902536 -0.800839,-1.53352 0.227286,-0.764206 1.080439,-1.153207 1.823184,-0.920113 0.875301,0.274694 1.318158,1.258434 1.039387,2.112849 -0.321851,0.986456 -1.436492,1.48327 -2.402514,1.158661 -1.097655,-0.368841 -1.648497,-1.614594 -1.277934,-2.692179 0.415715,-1.208887 1.792727,-1.813807 2.981843,-1.397208 1.320145,0.462503 1.97918,1.970885 1.516483,3.271508" />
    <path
       style="fill:none;fill-rule:evenodd;stroke:#000000;stroke-width:0.264583"
       id="path160-9"
       d="m 46.225681,70.856697 c 0.123022,0.05126 -0.0084,0.19112 -0.08519,0.204469 -0.208107,0.03618 -0.339325,-0.195431 -0.323743,-0.37486 0.02787,-0.320956 0.370425,-0.498264 0.664525,-0.443017 0.431602,0.08108 0.660553,0.547303 0.562291,0.95419 -0.130968,0.542316 -0.724784,0.824188 -1.243855,0.681565 -0.653198,-0.179476 -0.988502,-0.902536 -0.800839,-1.53352 0.227286,-0.764205 1.080439,-1.153207 1.823184,-0.920113 0.875301,0.274694 1.318158,1.258435 1.039387,2.11285 -0.321851,0.986456 -1.436492,1.48327 -2.402514,1.15866 -1.097655,-0.368841 -1.648497,-1.614593 -1.277934,-2.692178 0.415715,-1.208888 1.792727,-1.813808 2.981843,-1.397209 1.320145,0.462504 1.97918,1.970885 1.516483,3.271508" />
    <path
       d="m 53.161396,70.668373 c 0.123021,0.05126 -0.0084,0.19112 -0.0852,0.204469 -0.208107,0.03618 -0.339325,-0.195431 -0.323744,-0.37486 0.02787,-0.320956 0.370426,-0.498264 0.664525,-0.443017 0.431603,0.08108 0.660553,0.547303 0.562292,0.95419 -0.130968,0.542317 -0.724784,0.824188 -1.243855,0.681565 -0.653199,-0.179476 -0.988503,-0.902536 -0.800839,-1.53352 0.227285,-0.764205 1.080438,-1.153207 1.823184,-0.920113 0.8753,0.274694 1.318157,1.258435 1.039387,2.11285 -0.321851,0.986456 -1.436492,1.48327 -2.402514,1.15866 -1.097656,-0.368841 -1.648497,-1.614593 -1.277935,-2.692178 0.415715,-1.208888 1.792728,-1.813808 2.981844,-1.397209 1.320145,0.462504 1.97918,1.970885 1.516483,3.271508"
       id="path160-2-4"
       style="fill:none;fill-rule:evenodd;stroke:#000000;stroke-width:0.264583" />
    <path
       d="m 60.113369,70.668373 c 0.123021,0.05126 -0.0084,0.19112 -0.08519,0.204469 -0.208107,0.03618 -0.339325,-0.195431 -0.323744,-0.37486 0.02787,-0.320956 0.370426,-0.498264 0.664525,-0.443017 0.431603,0.08108 0.660553,0.547303 0.562291,0.95419 -0.130967,0.542317 -0.724783,0.824188 -1.243854,0.681565 -0.653199,-0.179476 -0.988503,-0.902536 -0.800839,-1.53352 0.227285,-0.764205 1.080438,-1.153207 1.823184,-0.920113 0.8753,0.274694 1.318157,1.258435 1.039387,2.11285 -0.321851,0.986456 -1.436492,1.48327 -2.402514,1.15866 -1.097656,-0.368841 -1.648497,-1.614593 -1.277935,-2.692178 0.415715,-1.208888 1.792728,-1.813808 2.981844,-1.397209 1.320144,0.462504 1.97918,1.970885 1.516483,3.271508"
       id="path160-6-1"
       style="fill:none;fill-rule:evenodd;stroke:#000000;stroke-width:0.264583" />
    <path
       style="fill:none;fill-rule:evenodd;stroke:#000000;stroke-width:0.264583"
       id="path160-3"
       d="m 64.399727,113.18185 c 0.123021,0.0513 -0.0084,0.19112 -0.0852,0.20447 -0.208107,0.0362 -0.339324,-0.19544 -0.323743,-0.37486 0.02787,-0.32096 0.370426,-0.49827 0.664525,-0.44302 0.431603,0.0811 0.660553,0.5473 0.562291,0.95419 -0.130967,0.54232 -0.724783,0.82419 -1.243854,0.68156 -0.653199,-0.17947 -0.988503,-0.90253 -0.800839,-1.53352 0.227285,-0.7642 1.080438,-1.1532 1.823184,-0.92011 0.8753,0.27469 1.318157,1.25844 1.039387,2.11285 -0.321851,0.98646 -1.436492,1.48327 -2.402514,1.15866 -1.097656,-0.36884 -1.648497,-1.61459 -1.277935,-2.69218 0.415715,-1.20889 1.792727,-1.81381 2.981844,-1.39721 1.320144,0.46251 1.97918,1.97089 1.516482,3.27151" />
    <path
       d="m 71.335449,112.99353 c 0.123021,0.0513 -0.0084,0.19112 -0.08519,0.20447 -0.208107,0.0362 -0.339325,-0.19543 -0.323744,-0.37486 0.02787,-0.32096 0.370426,-0.49826 0.664526,-0.44302 0.431602,0.0811 0.660553,0.5473 0.562291,0.95419 -0.130968,0.54232 -0.724784,0.82419 -1.243855,0.68157 -0.653198,-0.17948 -0.988503,-0.90254 -0.800839,-1.53352 0.227286,-0.76421 1.080439,-1.15321 1.823184,-0.92012 0.875301,0.2747 1.318158,1.25844 1.039387,2.11285 -0.321851,0.98646 -1.436492,1.48327 -2.402514,1.15866 -1.097655,-0.36884 -1.648497,-1.61459 -1.277935,-2.69217 0.415716,-1.20889 1.792728,-1.81381 2.981844,-1.39721 1.320145,0.4625 1.97918,1.97088 1.516483,3.27151"
       id="path160-2-7"
       style="fill:none;fill-rule:evenodd;stroke:#000000;stroke-width:0.264583" />
    <path
       d="m 78.287415,112.99353 c 0.123021,0.0513 -0.0084,0.19112 -0.0852,0.20447 -0.208107,0.0362 -0.339325,-0.19543 -0.323743,-0.37486 0.02787,-0.32096 0.370426,-0.49826 0.664525,-0.44302 0.431602,0.0811 0.660553,0.5473 0.562291,0.95419 -0.130967,0.54232 -0.724783,0.82419 -1.243855,0.68157 -0.653198,-0.17948 -0.988502,-0.90254 -0.800839,-1.53352 0.227286,-0.76421 1.080439,-1.15321 1.823185,-0.92012 0.8753,0.2747 1.318157,1.25844 1.039387,2.11285 -0.321852,0.98646 -1.436493,1.48327 -2.402514,1.15866 -1.097656,-0.36884 -1.648498,-1.61459 -1.277935,-2.69217 0.415715,-1.20889 1.792727,-1.81381 2.981843,-1.39721 1.320145,0.4625 1.979181,1.97088 1.516483,3.27151"
       id="path160-6-8"
       style="fill:none;fill-rule:evenodd;stroke:#000000;stroke-width:0.264583" />
  </g>
</svg>
