<svg version="1" xmlns="http://www.w3.org/2000/svg" width="933.333" height="933.333" viewBox="0 0 700.000000 700.000000"><path d="M96.1 119.6c-16.1 4.3-30.3 17.6-37.2 34.9l-2.4 6-.3 182.5c-.2 131.4 0 184.2.8 188.5 3.3 17.6 18.3 35.2 35.8 41.8 5.6 2.2 6.4 2.2 80.5 2.5l74.7.3V283.8l-16.2 8.5c-9 4.6-29.2 15.1-45 23.3L158 330.4v33.3c0 18.3.3 33.3.7 33.3.3 0 7.1-3.4 15-7.5l14.3-7.6V519h-72V174h72v40c0 22 .3 40 .6 40 .4 0 13.3-6.6 28.8-14.8 15.4-8.1 28.6-14.8 29.3-15 2-.5 1.8-55.5-.2-64-2.4-10.1-6.9-17.9-15.4-26.3-8.1-8.1-14.5-12-23.8-14.4-8.3-2.2-103.1-2.1-111.2.1zM358.1 119.6c-18.5 5-34.4 21.7-39.2 41.4-1.2 4.5-1.4 41.5-1.4 210v204.5l29.7.3 29.8.2.2-200.7.3-200.8 36.3-.3 36.2-.2v402h60l.2-200.8.3-200.7h72l.3 200.7.2 200.8h60l-.2-206.3-.3-206.2-2.2-6.6c-6-17.4-22.1-33.1-38.7-37.5-7.8-2.1-72-2-80.1.1-8.8 2.3-16.5 6.9-24 14.3-5.5 5.5-7.6 8.6-11.8 17.4l-5.1 10.7-6-11.2c-9.6-17.4-20.8-27.2-36.1-31.2-8.3-2.1-72.3-2.1-80.4.1z"/></svg>