<svg version="1" xmlns="http://www.w3.org/2000/svg" width="933.333" height="933.333" viewBox="0 0 700.000000 700.000000"><path d="M66.9 105.7c-8 1.2-18.4 11.2-20.9 20.1-.6 2.5-1 61.8-1 175.9V474h610l-.2-174.3-.3-174.2-2.2-4.1c-3.4-6.3-6.6-9.7-12.5-12.9l-5.3-3-282.5-.1c-155.4-.1-283.7.1-285.1.3zM628 291v156H72V135h556v156z"/><path d="M182.5 164.7c-30.7 2.8-54.3 16.6-64.4 37.6-7.5 15.5-7.4 14.1-7.8 81-.3 36.5 0 63.1.6 68 2.4 19.7 10.6 35.7 23.6 45.7 12.3 9.4 26.7 14.6 47 16.9 4.4.5 34.3.9 66.5.8l58.5-.2 4.5-2.5c2.8-1.6 5.5-4.3 7.5-7.4l3-4.9.3-53c.3-58.5.1-61.5-5.1-67.4-6.2-7-7.4-7.3-42.2-7.3-30.3 0-31.2.1-35.5 2.2-6 3.1-9.7 8.1-11 14.7-.5 3-1 14.1-1 24.7V333h-10.4c-5.8 0-10.7-.4-11.1-.9-.8-1.5-.7-82.3.2-83.2.4-.4 18.4-.9 39.8-1.1 42.2-.3 43.2-.5 49.4-6.1 5.6-5.2 6.1-8 6.1-35.7 0-22.5-.3-26-1.9-29.5-2.3-5.1-7.9-10.1-12.8-11.4-3.5-1-93.6-1.3-103.8-.4zM352.8 165.2c-2.1.5-5.5 2.6-7.7 4.6-7.5 7.1-7.1-.5-7.1 119.9 0 106.3.1 107.9 2.1 112.3 2.5 5.6 4.4 7.7 9.4 10.4 3.8 2 5.2 2.1 35 2.1 34.1 0 33.5.1 40.2-6.5 5.5-5.4 5.8-7.9 5.8-47.5v-36.1l4.3 4.2c6.5 6.4 11.3 7.7 28.5 7.2 15.7-.4 17.5-.9 24.8-7.5l3.9-3.5v36c0 29.7.3 36.7 1.5 40.3 1.9 5.2 4.7 8.4 10 11.2 3.9 2.1 5.2 2.2 35.5 2.2s31.6-.1 35.5-2.2c5.3-2.8 8.1-6 10-11.2 1.3-3.8 1.5-17.8 1.5-111.5 0-120.5.4-113.5-7.3-120.1-2.2-1.9-5.8-4-7.9-4.6-2.4-.6-15.7-.9-35.1-.7-30 .3-31.4.4-35.3 2.5-7.6 4.1-10.4 8.1-27.7 40.3-1.7 3-4.5 8.1-6.3 11.3-1.9 3.2-3.4 6.2-3.4 6.8 0 2.9-2.8-1.5-14.9-23.6-14.4-26.3-17.7-31-24.3-34.6-4.2-2.4-4.7-2.4-35.8-2.6-18.8-.1-33 .3-35.2.9zM280.6 531.2c-.2.7-1.1 10.1-2 20.9-1.8 21.6-2.7 25.9-6.1 30.5-3.3 4.3-8 6.3-17.9 7.6-9 1.1-11.2 1.9-10.2 3.7.9 1.4 210.2 1.6 211.1.2.9-1.6-2.5-2.9-10.8-4-9.6-1.4-13.6-3-17-7-3.7-4.4-4.5-8-6.3-28.6-.8-9.9-1.7-19.5-2-21.3l-.5-3.2h-69c-54.3 0-69 .3-69.3 1.2z"/></svg>