<svg version="1" xmlns="http://www.w3.org/2000/svg" width="933.333" height="933.333" viewBox="0 0 700.000000 700.000000"><path d="M65.8 106.4c-9.8 2.7-17.6 10.9-19.8 20.9-.9 3.8-1.1 54.6-.8 192.7.4 160.1.6 188 1.9 191.2 2.5 6.6 7.3 12.2 13 15.3l5.4 3 107.4.3 107.4.2-.7 10.8c-1.4 21.4-3.5 35.3-5.9 39.6-3.1 5.6-8.5 8.4-19 9.7-9.1 1.2-11.4 2-10.3 3.8.9 1.4 210.2 1.6 211 .2 1.1-1.7-1.9-2.9-10-3.9-4.4-.6-9.1-1.5-10.5-2.1-4.9-1.8-8.8-6.1-10.3-11.2-1.3-4.2-3.9-27.1-4.8-42.1l-.3-4.8 107.5-.2 107.5-.3 5.4-3c6.2-3.4 11.3-9.8 13.3-16.5 1-3.6 1.3-40.6 1.3-194V126.5l-2.1-4.6c-2.7-5.8-8.5-11.6-14.3-14.3l-4.6-2.1-281.5-.2c-225.1-.1-282.4.1-286.2 1.1zM628 290.5V447H71V134h557v156.5z"/><path d="M197 184.6c-1.4.2-5.9.9-10 1.5-31.1 4.3-51.8 22.1-57.4 49.2-2.4 11.3-2.4 119.1 0 130.4 5.9 28.5 27.4 45.8 62.4 50.2 10.6 1.3 113.5 1.4 118.2.1 5-1.4 9.7-5.5 11.9-10.5 1.7-3.7 1.9-7.7 1.9-55.1v-51l-2.6-5.2c-2.1-4.2-3.4-5.6-7.8-7.7l-5.4-2.6-29.4.3-29.5.3-4.1 2.8c-7.6 5-8.5 8.1-9 31.9l-.4 20.8H215v-77l2.3-.5c1.2-.2 18.5-.6 38.4-.7l36.1-.3 4.3-3c8-5.7 8.4-6.8 8.7-33.1.2-15.5-.1-24.6-.8-27.5-1.5-5.5-7.2-11.3-12.5-12.8-3.7-1-87.9-1.4-94.5-.5zM351.7 185.4c-4.5 1.7-8.2 4.8-10.5 9.1-1.6 2.7-1.7 12-1.7 106 0 95.4.1 103.2 1.7 106.1 2.3 4.3 7.1 8.1 11.6 9.4 5.1 1.4 53.5 1.3 58.7-.1 5.1-1.4 11-7.3 12.4-12.4.7-2.6 1.1-16 1.1-37.1v-33.1l3.9 3.7c5.6 5.3 11.3 7 24.1 7s19.1-1.6 24.8-6.6l4.2-3.6v33.9c0 30.6.2 34.2 1.9 37.8 2.2 5 6.9 9.1 11.9 10.5 4.9 1.3 54.5 1.3 59.4 0 4.8-1.4 9.4-5.3 11.8-10.1 1.9-3.7 2-6.6 2-105.4 0-98.8-.1-101.7-2-105.4-2.5-5-7.1-8.8-12.1-10.1-2.6-.7-14.3-1-32.7-.8-27.3.3-28.9.4-32.8 2.5-5.7 3.1-9.2 7.4-16 19.9-3.2 6-7.1 13.1-8.6 15.9-1.5 2.7-4.4 8-6.4 11.7-2 3.8-3.9 6.8-4.3 6.8-.3 0-4.1-6.4-8.3-14.3-14.8-27-16.6-30.2-19.8-34-1.7-2-5-4.7-7.3-6-4-2.1-5.3-2.2-33.7-2.4-23.2-.2-30.3 0-33.3 1.1z"/></svg>