<svg version="1" xmlns="http://www.w3.org/2000/svg" width="933.333" height="933.333" viewBox="0 0 700.000000 700.000000"><path d="M20 71.2C12.5 74.1 5 81.7 2.1 89.4L0 95.1l.2 218.7.3 218.7 2.7 5.7c3.1 6.6 9 12.7 15.6 15.9l4.7 2.4 123.3.3 123.4.2-.6 6.8c-4.1 46.4-4.6 49.5-10.5 55.3-4 4.1-7.5 5.3-19.6 7-8.2 1.1-11.5 2.2-11.5 3.9 0 1.3 242.7 1.4 243.5.1 1-1.7-2.8-3-12-4.1-4.8-.6-10.4-1.8-12.4-2.6-5.6-2.3-10-7.2-11.6-12.9-1.4-5-3.8-25-5.1-43.7l-.7-9.8 123.4-.2 123.4-.3 4.7-2.4c6.4-3.1 12.6-9.5 15.7-16.1l2.6-5.5.3-218.7.2-218.7-2.1-5.7c-3-7.9-10.4-15.3-18.2-18.2l-5.8-2.2-324.2.1H25.5L20 71.2zM669.5 282v179.5l-319.7.3L30 462V102l319.8.2 319.7.3V282z"/><path d="M179.5 159.7c-12.8 1.3-22.2 2.7-29 4.5-9.4 2.4-24.7 9.4-29 13.3-1.6 1.5-3.9 3.4-5 4.4-5.7 4.5-13.8 17.1-17.2 26.5-4 11.5-4.3 16.7-4.3 84.8 0 70.7.2 73.2 5.3 87 7.5 19.9 23.2 33.8 46 40.8 16.2 5 20.2 5.3 87.5 5.7 44.4.3 64.8.1 68.5-.7 7.2-1.5 12.1-5.2 15.2-11.3l2.5-5.1v-59c0-56.8-.1-59.3-2-63.5-1.1-2.4-3.5-5.6-5.3-7.2-6.2-5.5-9.1-5.9-42.8-5.9-28.7 0-31.2.1-36.3 2.1-6.3 2.3-10.7 6.8-12.5 12.8-.7 2.4-1.1 12.5-1.1 27v23.2l-12.2-.3-12.3-.3-.3-43.6c-.2-34.2.1-43.9 1-44.7.9-.7 15.9-1.2 43.3-1.4 40.8-.3 42.1-.4 46-2.5 5.1-2.7 9-6.8 10.9-11.5 1.3-3.1 1.6-8.5 1.6-30 0-15.7-.4-27.9-1.1-30.2-1.6-5.7-7.4-11.4-13.9-13.6-5.1-1.8-8.9-1.9-53-1.8-26.1.1-48.8.3-50.5.5zM356.9 160c-8.1 1.4-13.4 5.1-16.9 12-2 3.9-2 5.9-2 121v117l2.2 4.6c2.7 5.8 8.3 9.9 15.4 11.4 3.5.7 15.6 1 34.7.8 29.1-.3 29.3-.3 34.2-2.9 3.5-1.8 5.9-3.9 8-7.4l3-4.8.3-40.8.3-40.8 3.5 3.9c1.9 2.1 5.6 4.9 8.2 6.2 4.3 2.1 6 2.3 21.2 2.3 18.7-.1 21-.7 28.6-7.7l4.4-4.1v39.7c0 38.5.1 39.7 2.2 44.2 2.6 5.7 8.2 9.9 15.1 11.4 3.5.8 15.4 1.1 35.7.8 29.1-.3 30.7-.4 34.6-2.5 4.8-2.6 10.1-8.2 11.1-12.1.5-1.5.8-55.4.8-119.7v-117l-2.2-4.2c-2.5-4.5-5.9-7.6-11.3-10.1-3-1.4-8.5-1.7-35.6-1.9-30.3-.2-32.5-.1-38.3 1.8-8.3 2.8-13.6 8.3-20.8 21.7-3.2 5.9-6.8 12.5-8 14.7-1.3 2.2-5 9.1-8.3 15.2-3.4 6.2-6.5 11.5-7 11.8-.4.3-6.5-10-13.5-22.8-19.4-35.2-20.6-36.8-31.6-40.6-4.6-1.7-8.6-1.9-34.3-1.9-16 0-31.2.3-33.7.8z"/></svg>